<mxfile host="Electron" modified="2024-03-27T02:04:36.180Z" agent="Mozilla/5.0 (Windows NT 10.0; Win64; x64) AppleWebKit/537.36 (KHTML, like Gecko) draw.io/24.1.0 Chrome/120.0.6099.109 Electron/28.1.0 Safari/537.36" etag="BUR7Fpj1A6tdyA4XsIqR" version="24.1.0" type="device">
  <diagram name="Page-1" id="kFrdMGKW_Bm0aay2mBpl">
    <mxGraphModel dx="1274" dy="1106" grid="1" gridSize="10" guides="1" tooltips="1" connect="1" arrows="1" fold="1" page="1" pageScale="1" pageWidth="827" pageHeight="1169" math="0" shadow="0">
      <root>
        <mxCell id="0" />
        <mxCell id="1" parent="0" />
        <mxCell id="L2ES_Gi9ivVqbOsw5SuI-1" value="" style="shape=mxgraph.pid.vessels.jacketed_mixing_vessel;html=1;pointerEvents=1;align=center;verticalLabelPosition=bottom;verticalAlign=middle;dashed=0;strokeWidth=2;rounded=0;strokeColor=default;fontFamily=Helvetica;fontSize=11;fontColor=default;labelBackgroundColor=default;" vertex="1" parent="1">
          <mxGeometry x="140.3133333333333" y="100.3125" width="71.87619047619044" height="125.0625" as="geometry" />
        </mxCell>
        <mxCell id="L2ES_Gi9ivVqbOsw5SuI-5" style="edgeStyle=orthogonalEdgeStyle;rounded=0;orthogonalLoop=1;jettySize=auto;html=1;strokeWidth=2;endArrow=blockThin;endFill=1;strokeColor=default;align=center;verticalAlign=middle;fontFamily=Helvetica;fontSize=11;fontColor=default;labelBackgroundColor=default;" edge="1" parent="1" source="L2ES_Gi9ivVqbOsw5SuI-2">
          <mxGeometry relative="1" as="geometry">
            <mxPoint x="391.88" y="50" as="targetPoint" />
            <Array as="points">
              <mxPoint x="311.37866666666656" y="50" />
            </Array>
          </mxGeometry>
        </mxCell>
        <mxCell id="L2ES_Gi9ivVqbOsw5SuI-6" style="edgeStyle=orthogonalEdgeStyle;rounded=0;orthogonalLoop=1;jettySize=auto;html=1;strokeWidth=2;strokeColor=default;align=center;verticalAlign=middle;fontFamily=Helvetica;fontSize=11;fontColor=default;labelBackgroundColor=default;endArrow=blockThin;endFill=1;" edge="1" parent="1" source="L2ES_Gi9ivVqbOsw5SuI-2">
          <mxGeometry relative="1" as="geometry">
            <mxPoint x="391.8799999999998" y="280" as="targetPoint" />
            <Array as="points">
              <mxPoint x="311.37866666666656" y="280" />
            </Array>
          </mxGeometry>
        </mxCell>
        <mxCell id="L2ES_Gi9ivVqbOsw5SuI-2" value="" style="shape=mxgraph.pid.vessels.tank;html=1;pointerEvents=1;align=center;verticalLabelPosition=bottom;verticalAlign=middle;dashed=0;strokeWidth=2;rounded=0;strokeColor=default;fontFamily=Helvetica;fontSize=11;fontColor=default;labelBackgroundColor=default;" vertex="1" parent="1">
          <mxGeometry x="260" y="80.19" width="100" height="165.31" as="geometry" />
        </mxCell>
        <mxCell id="L2ES_Gi9ivVqbOsw5SuI-3" style="edgeStyle=orthogonalEdgeStyle;rounded=0;orthogonalLoop=1;jettySize=auto;html=1;entryX=0.096;entryY=0.518;entryDx=0;entryDy=0;entryPerimeter=0;strokeWidth=2;strokeColor=default;align=center;verticalAlign=middle;fontFamily=Helvetica;fontSize=11;fontColor=default;labelBackgroundColor=default;endArrow=blockThin;endFill=1;" edge="1" parent="1" target="L2ES_Gi9ivVqbOsw5SuI-1">
          <mxGeometry relative="1" as="geometry">
            <mxPoint x="90" y="165" as="sourcePoint" />
            <Array as="points">
              <mxPoint x="147.50095238095236" y="165" />
            </Array>
          </mxGeometry>
        </mxCell>
        <mxCell id="L2ES_Gi9ivVqbOsw5SuI-4" style="edgeStyle=orthogonalEdgeStyle;rounded=0;orthogonalLoop=1;jettySize=auto;html=1;entryX=0;entryY=0.512;entryDx=0;entryDy=0;entryPerimeter=0;exitX=0.9;exitY=0.517;exitDx=0;exitDy=0;exitPerimeter=0;strokeWidth=2;strokeColor=default;align=center;verticalAlign=middle;fontFamily=Helvetica;fontSize=11;fontColor=default;labelBackgroundColor=default;endArrow=blockThin;endFill=1;" edge="1" parent="1" source="L2ES_Gi9ivVqbOsw5SuI-1" target="L2ES_Gi9ivVqbOsw5SuI-2">
          <mxGeometry relative="1" as="geometry">
            <Array as="points">
              <mxPoint x="244.53380952380945" y="165" />
            </Array>
          </mxGeometry>
        </mxCell>
        <mxCell id="L2ES_Gi9ivVqbOsw5SuI-8" value="Reactor" style="text;html=1;align=center;verticalAlign=middle;resizable=0;points=[];autosize=1;strokeColor=none;fillColor=none;fontFamily=IBM Plex sans;fontSize=16;" vertex="1" parent="1">
          <mxGeometry x="132.19" y="245.5" width="80" height="30" as="geometry" />
        </mxCell>
        <mxCell id="L2ES_Gi9ivVqbOsw5SuI-9" value="Separator" style="text;html=1;align=center;verticalAlign=middle;resizable=0;points=[];autosize=1;strokeColor=none;fillColor=none;fontFamily=IBM Plex sans;fontSize=16;" vertex="1" parent="1">
          <mxGeometry x="266.68" y="147.84" width="90" height="30" as="geometry" />
        </mxCell>
        <mxCell id="L2ES_Gi9ivVqbOsw5SuI-10" value="A" style="text;html=1;align=center;verticalAlign=middle;resizable=0;points=[];autosize=1;strokeColor=none;fillColor=none;fontFamily=IBM Plex sans;fontSize=16;" vertex="1" parent="1">
          <mxGeometry x="85.31" y="130" width="30" height="30" as="geometry" />
        </mxCell>
        <mxCell id="L2ES_Gi9ivVqbOsw5SuI-11" value="D" style="text;html=1;align=center;verticalAlign=middle;resizable=0;points=[];autosize=1;strokeColor=none;fillColor=none;fontFamily=IBM Plex sans;fontSize=16;" vertex="1" parent="1">
          <mxGeometry x="360" y="20" width="30" height="30" as="geometry" />
        </mxCell>
        <mxCell id="L2ES_Gi9ivVqbOsw5SuI-12" value="U" style="text;html=1;align=center;verticalAlign=middle;resizable=0;points=[];autosize=1;strokeColor=none;fillColor=none;fontFamily=IBM Plex sans;fontSize=16;" vertex="1" parent="1">
          <mxGeometry x="356.68" y="280" width="30" height="30" as="geometry" />
        </mxCell>
      </root>
    </mxGraphModel>
  </diagram>
</mxfile>
